<svg viewBox="0 0 100 100" xmlns="http://www.w3.org/2000/svg"><g fill="#e1e1e1" opacity=".75"><path d="m90.28 27.87h-10.7l-1.1-10.7a7.2 7.2 0 0 0 -7.9-6.5l-61.58 6.6a7.11 7.11 0 0 0 -6.4 7.9l4.9 46.7a7.26 7.26 0 0 0 7.2 6.5h.8l5.8-.6v4.4a7.17 7.17 0 0 0 7.2 7.2h61.8a7.17 7.17 0 0 0 7.2-7.2v-47a7.26 7.26 0 0 0 -7.22-7.3zm-69.1 7.3v36.7l-6.4.7a1.36 1.36 0 0 1 -1.5-1.2l-4.9-46.8a2 2 0 0 1 .3-1 1.25 1.25 0 0 1 .9-.5l61.5-6.5h.1a1.9 1.9 0 0 1 .9.3 1.25 1.25 0 0 1 .5.9l1.1 10.1h-45.3a7.26 7.26 0 0 0 -7.2 7.3zm70.4 47a1.37 1.37 0 0 1 -1.4 1.4h-61.8a1.37 1.37 0 0 1 -1.4-1.4v-20.17l11.8-11.8a3.32 3.32 0 0 1 4.7 0l23.7 23.7a2.9 2.9 0 0 0 4.2 0 3 3 0 0 0 0-4.1l-2.6-2.6 6.1-6.1a.61.61 0 0 1 .8 0l15.9 16zm0-13.4-11.8-11.77a6.46 6.46 0 0 0 -9.1 0l-6 6.1-17-17a9.17 9.17 0 0 0 -13 0l-7.68 7.57v-18.5a1.37 1.37 0 0 1 1.4-1.4h61.8a1.37 1.37 0 0 1 1.4 1.4z"/><circle cx="78.28" cy="44.67" r="5.6"/></g><g fill="#231f20" opacity=".6"><path d="m30.53 35h-4.42v-1l1.35-.4v-8.6l-1.35-.42v-1h4.42v1l-1.34.42v8.6l1.34.4z"/><path d="m42.12 26.25a2.94 2.94 0 0 1 2.19.75 3.34 3.34 0 0 1 .69 2.41v5.59h-1.65v-5.37c0-1.33-.54-2-1.61-2a1.86 1.86 0 0 0 -1.65.72 3.52 3.52 0 0 0 -.49 2v4.65h-1.68v-5.37c0-1.33-.54-2-1.63-2a1.78 1.78 0 0 0 -1.67.79 4.57 4.57 0 0 0 -.45 2.25v4.33h-1.69v-8.6h1.34l.24 1.14h.09a2.57 2.57 0 0 1 1.08-1 3.4 3.4 0 0 1 1.45-.31 2.57 2.57 0 0 1 2.61 1.38h.13a2.63 2.63 0 0 1 1.15-1 3.61 3.61 0 0 1 1.55-.36z"/><path d="m51 26.25a3.51 3.51 0 0 1 2.41.71 2.79 2.79 0 0 1 .81 2.22v5.82h-1.22l-.33-1.2h-.07a3.68 3.68 0 0 1 -1.17 1 3.64 3.64 0 0 1 -1.7.33 2.93 2.93 0 0 1 -1.93-.63 2.41 2.41 0 0 1 -.77-2 2.27 2.27 0 0 1 1-2 5.81 5.81 0 0 1 3-.74l1.47-.05v-.48a1.46 1.46 0 0 0 -1.64-1.72 4.16 4.16 0 0 0 -1.27.19 7.82 7.82 0 0 0 -1.16.47l-.51-1.17a6.29 6.29 0 0 1 1.39-.54 6.45 6.45 0 0 1 1.69-.21zm1.54 4.63h-1.14a3.86 3.86 0 0 0 -2 .49 1.4 1.4 0 0 0 -.57 1.18 1.17 1.17 0 0 0 .4 1 1.69 1.69 0 0 0 1 .3 2.43 2.43 0 0 0 1.65-.56 2.06 2.06 0 0 0 .66-1.67z"/><path d="m59.76 26.25a3.44 3.44 0 0 1 1.5.31 3 3 0 0 1 1.14 1h.08l.19-1.13h1.33v8.71q0 3.72-4 3.72a11.28 11.28 0 0 1 -1.71-.12 6.9 6.9 0 0 1 -1.44-.4v-1.51a5.81 5.81 0 0 0 1.49.5 8.18 8.18 0 0 0 1.75.17 2.16 2.16 0 0 0 1.62-.6 2.31 2.31 0 0 0 .59-1.68v-.29c0-.14 0-.32 0-.54s0-.4 0-.51h-.06a2.82 2.82 0 0 1 -1.09 1 3.41 3.41 0 0 1 -1.5.31 3 3 0 0 1 -2.43-1.19 5.15 5.15 0 0 1 -.92-3.27 5.24 5.24 0 0 1 .92-3.28 3 3 0 0 1 2.54-1.2zm.35 1.4a1.74 1.74 0 0 0 -1.54.79 4.2 4.2 0 0 0 -.57 2.31 4.09 4.09 0 0 0 .57 2.25 1.79 1.79 0 0 0 1.58.78 2.16 2.16 0 0 0 1.73-.64 3.25 3.25 0 0 0 .55-2.12v-.32a3.89 3.89 0 0 0 -.56-2.37 2.11 2.11 0 0 0 -1.76-.68z"/><path d="m70.08 26.25a3.44 3.44 0 0 1 2.66 1 4 4 0 0 1 1 2.85v.93h-5.8a3 3 0 0 0 .69 2 2.46 2.46 0 0 0 1.86.7 6.55 6.55 0 0 0 1.51-.08 8.78 8.78 0 0 0 1.33-.46v1.41a6.51 6.51 0 0 1 -1.33.4 7.77 7.77 0 0 1 -1.56.13 4.69 4.69 0 0 1 -2.2-.49 3.54 3.54 0 0 1 -1.5-1.47 5.08 5.08 0 0 1 -.53-2.43 5.68 5.68 0 0 1 .48-2.46 3.66 3.66 0 0 1 1.31-1.5 3.78 3.78 0 0 1 2.08-.53zm0 1.3a1.87 1.87 0 0 0 -1.46.6 2.68 2.68 0 0 0 -.62 1.67h4a2.81 2.81 0 0 0 -.49-1.63 1.72 1.72 0 0 0 -1.43-.64z"/><path d="m26.75 44.1a3.26 3.26 0 0 0 -2.66 1.17 4.87 4.87 0 0 0 -1 3.22 5.17 5.17 0 0 0 .91 3.19 3.22 3.22 0 0 0 2.72 1.17 7.17 7.17 0 0 0 1.41-.14 12.8 12.8 0 0 0 1.38-.36v1.49a7.11 7.11 0 0 1 -1.37.37 9.78 9.78 0 0 1 -1.63.12 5.32 5.32 0 0 1 -2.91-.73 4.39 4.39 0 0 1 -1.73-2 7.75 7.75 0 0 1 -.56-3.09 7 7 0 0 1 .63-3 4.8 4.8 0 0 1 1.84-2.07 5.55 5.55 0 0 1 3-.75 7.88 7.88 0 0 1 1.69.18 7.35 7.35 0 0 1 1.5.52l-.63 1.44a10.64 10.64 0 0 0 -1.2-.45 4.41 4.41 0 0 0 -1.39-.28z"/><path d="m39.37 49.86a4.61 4.61 0 0 1 -1.1 3.31 3.9 3.9 0 0 1 -3 1.16 4 4 0 0 1 -2.06-.52 3.6 3.6 0 0 1 -1.43-1.51 5.33 5.33 0 0 1 -.52-2.44 4.66 4.66 0 0 1 1.09-3.3 3.86 3.86 0 0 1 3-1.15 4.14 4.14 0 0 1 2.08.51 3.66 3.66 0 0 1 1.43 1.51 5.26 5.26 0 0 1 .51 2.43zm-6.33 0a4 4 0 0 0 .55 2.27 2.28 2.28 0 0 0 3.49 0 4 4 0 0 0 .55-2.27 3.91 3.91 0 0 0 -.55-2.26 2 2 0 0 0 -1.76-.79 2 2 0 0 0 -1.74.79 4 4 0 0 0 -.58 2.26z"/><path d="m51.16 45.41a2.9 2.9 0 0 1 2.18.75 3.34 3.34 0 0 1 .74 2.41v5.6h-1.69v-5.38c0-1.33-.54-2-1.62-2a1.85 1.85 0 0 0 -1.64.72 3.52 3.52 0 0 0 -.5 2v4.63h-1.63v-5.35c0-1.33-.54-2-1.63-2a1.77 1.77 0 0 0 -1.67.79 4.57 4.57 0 0 0 -.45 2.25v4.34h-1.7v-8.6h1.34l.24 1.14h.1a2.57 2.57 0 0 1 1.08-1 3.36 3.36 0 0 1 1.44-.31 2.58 2.58 0 0 1 2.62 1.38h.13a2.63 2.63 0 0 1 1.15-1 3.61 3.61 0 0 1 1.51-.37z"/><path d="m57.53 42.29a1.07 1.07 0 0 1 .67.23.88.88 0 0 1 .29.75.91.91 0 0 1 -.29.74 1.07 1.07 0 0 1 -.67.23 1.08 1.08 0 0 1 -.69-.23.91.91 0 0 1 -.29-.74.88.88 0 0 1 .29-.75 1.08 1.08 0 0 1 .69-.23zm.83 3.28v8.6h-1.69v-8.6z"/><path d="m65.37 45.41a3.25 3.25 0 0 1 2.3.75 3.18 3.18 0 0 1 .79 2.41v5.6h-1.67v-5.36c0-1.34-.59-2-1.77-2a2 2 0 0 0 -1.82.79 4.22 4.22 0 0 0 -.5 2.25v4.34h-1.7v-8.6h1.34l.24 1.14h.1a2.51 2.51 0 0 1 1.14-1 3.82 3.82 0 0 1 1.55-.32z"/><path d="m74 45.41a3.5 3.5 0 0 1 1.5.31 2.94 2.94 0 0 1 1.13 1h.08l.19-1.13h1.38v8.71q0 3.72-4 3.72a11.28 11.28 0 0 1 -1.71-.12 6.64 6.64 0 0 1 -1.43-.4v-1.5a5.56 5.56 0 0 0 1.49.5 8.18 8.18 0 0 0 1.75.17 2.16 2.16 0 0 0 1.62-.6 2.3 2.3 0 0 0 .58-1.68v-.29c0-.14 0-.32 0-.54s0-.4 0-.51h-.07a2.75 2.75 0 0 1 -1.09 1 3.36 3.36 0 0 1 -1.49.31 3.05 3.05 0 0 1 -2.55-1.17 5.19 5.19 0 0 1 -.92-3.27 5.3 5.3 0 0 1 .92-3.28 3 3 0 0 1 2.62-1.23zm.35 1.4a1.74 1.74 0 0 0 -1.54.79 4.11 4.11 0 0 0 -.54 2.31 4 4 0 0 0 .54 2.28 1.79 1.79 0 0 0 1.57.78 2.14 2.14 0 0 0 1.73-.64 3.24 3.24 0 0 0 .56-2.12v-.32a3.91 3.91 0 0 0 -.56-2.37 2.12 2.12 0 0 0 -1.72-.71z"/><path d="m38.92 70.25a2.87 2.87 0 0 1 -1.1 2.38 4.82 4.82 0 0 1 -3 .86 9.78 9.78 0 0 1 -1.82-.15 5.41 5.41 0 0 1 -1.39-.44v-1.63a9.79 9.79 0 0 0 1.51.52 6.89 6.89 0 0 0 1.75.23 2.86 2.86 0 0 0 1.73-.44 1.45 1.45 0 0 0 .57-1.2 1.51 1.51 0 0 0 -.25-.89 2.45 2.45 0 0 0 -.83-.67 11.29 11.29 0 0 0 -1.47-.66 8 8 0 0 1 -1.49-.75 3.25 3.25 0 0 1 -1-1.07 3.07 3.07 0 0 1 -.37-1.57 2.64 2.64 0 0 1 1-2.2 4.28 4.28 0 0 1 2.69-.8 7.65 7.65 0 0 1 1.75.23 10.28 10.28 0 0 1 1.51.5l-.54 1.42a11 11 0 0 0 -1.33-.45 5.48 5.48 0 0 0 -1.4-.17 2.17 2.17 0 0 0 -1.44.41 1.35 1.35 0 0 0 -.49 1.09 1.54 1.54 0 0 0 .24.88 2.19 2.19 0 0 0 .76.66 10.59 10.59 0 0 0 1.39.63 10 10 0 0 1 1.64.8 3.16 3.16 0 0 1 1 1 2.93 2.93 0 0 1 .38 1.48z"/><path d="m48.55 69a4.66 4.66 0 0 1 -1.1 3.31 3.93 3.93 0 0 1 -3 1.16 4 4 0 0 1 -2.04-.47 3.58 3.58 0 0 1 -1.41-1.54 5.21 5.21 0 0 1 -.53-2.46 4.67 4.67 0 0 1 1.08-3.3 3.89 3.89 0 0 1 3-1.15 4.18 4.18 0 0 1 2.09.51 3.7 3.7 0 0 1 1.36 1.53 5.26 5.26 0 0 1 .55 2.41zm-6.34 0a4 4 0 0 0 .55 2.27 2.3 2.3 0 0 0 3.5 0 4.09 4.09 0 0 0 .55-2.27 4 4 0 0 0 -.55-2.26 2 2 0 0 0 -1.77-.74 2 2 0 0 0 -1.74.79 4 4 0 0 0 -.54 2.21z"/><path d="m58.27 69a4.66 4.66 0 0 1 -1.1 3.31 3.93 3.93 0 0 1 -3 1.16 4 4 0 0 1 -2.04-.47 3.64 3.64 0 0 1 -1.42-1.51 5.21 5.21 0 0 1 -.52-2.49 4.63 4.63 0 0 1 1.09-3.3 3.86 3.86 0 0 1 3-1.15 4.14 4.14 0 0 1 2.08.51 3.64 3.64 0 0 1 1.42 1.51 5.14 5.14 0 0 1 .49 2.43zm-6.34 0a4.09 4.09 0 0 0 .55 2.27 2.3 2.3 0 0 0 3.5 0 4 4 0 0 0 .55-2.27 3.91 3.91 0 0 0 -.53-2.24 2 2 0 0 0 -1.79-.76 2 2 0 0 0 -1.74.79 4 4 0 0 0 -.54 2.21z"/><path d="m64.77 64.57a3.23 3.23 0 0 1 2.3.75 3.18 3.18 0 0 1 .8 2.41v5.6h-1.68v-5.33c0-1.34-.59-2-1.77-2a2 2 0 0 0 -1.81.79 4.12 4.12 0 0 0 -.51 2.21v4.34h-1.69v-8.62h1.34l.25 1.16h.1a2.4 2.4 0 0 1 1.14-1 3.67 3.67 0 0 1 1.53-.31z"/></g></svg>